/* XPM */
static char *_37797321a224478c2ab82b59c6fa49aVdVFxUwMFfFzWacY[] = {
/* columns rows colors chars-per-pixel */
"51 51 222 2 ",
"   c None",
".  c #020202",
"X  c #1B1B1C",
"o  c #141516",
"O  c #271313",
"+  c #24231D",
"@  c #242424",
"#  c #2B2C2C",
"$  c #292828",
"%  c #392A2A",
"&  c #3B3B3B",
"*  c #343536",
"=  c #3A3528",
"-  c #590000",
";  c #541717",
":  c #4A0404",
">  c #6B0101",
",  c #660303",
"<  c #7C0101",
"1  c #760000",
"2  c #701818",
"3  c #4C2929",
"4  c #582A2A",
"5  c #463434",
"6  c #5C3636",
"7  c #50332B",
"8  c #632D2D",
"9  c #663232",
"0  c #693232",
"q  c #6B3C3C",
"w  c #673E3E",
"e  c #733A3A",
"r  c #725118",
"t  c #6F6B31",
"y  c #655535",
"u  c #3F4141",
"i  c #4B4C4C",
"p  c #454647",
"a  c #4C5151",
"s  c #5B5C5C",
"d  c #555555",
"f  c #494F50",
"g  c #6A4646",
"h  c #645B59",
"j  c #7A5858",
"k  c #704E4F",
"l  c #766847",
"z  c #7F7358",
"x  c #7A6758",
"c  c #5E5F61",
"v  c #5F6061",
"b  c #666B6C",
"n  c #6B6C6D",
"m  c #676364",
"M  c #7C6667",
"N  c #7A7568",
"B  c #6B6F70",
"V  c #6D7374",
"C  c #747575",
"Z  c #747A7B",
"A  c #7A7C7C",
"S  c #797774",
"D  c #830000",
"F  c #8C0000",
"G  c #870E0E",
"H  c #9D0000",
"J  c #960505",
"K  c #901E1E",
"L  c #A30000",
"P  c #AB0000",
"I  c #AB0B0B",
"U  c #BC0000",
"Y  c #B40202",
"T  c #842E2E",
"R  c #9F3613",
"E  c #CD0000",
"W  c #C40404",
"Q  c #D40101",
"!  c #D60707",
"~  c #E40505",
"^  c #F60303",
"/  c #F41717",
"(  c #CD3503",
")  c #855603",
"_  c #B5441F",
"`  c #9D7713",
"'  c #93650D",
"]  c #B67C04",
"[  c #A8760C",
"{  c #977527",
"}  c #816824",
"|  c #825C5C",
" . c #8F7450",
".. c #876A69",
"X. c #867776",
"o. c #937C79",
"O. c #857B68",
"+. c #A27364",
"@. c #1F9658",
"#. c #3D8959",
"$. c #488758",
"%. c #B58C07",
"&. c #A68514",
"*. c #AF9207",
"=. c #BFA300",
"-. c #8E8E2D",
";. c #9E8E14",
":. c #DB9700",
">. c #E29300",
",. c #DFA500",
"<. c #F8BA00",
"1. c #D6D200",
"2. c #E9C900",
"3. c #FECC00",
"4. c #FFC700",
"5. c #FEDB00",
"6. c #FFD500",
"7. c #FFE500",
"8. c #FFEC00",
"9. c #F2EF00",
"0. c #FFFD00",
"q. c #FFF400",
"w. c #96845D",
"e. c #818267",
"r. c #8D8A7B",
"t. c #A98972",
"y. c #B79E64",
"u. c #DD8264",
"i. c #E28567",
"p. c #CAB17F",
"a. c #E5C477",
"s. c #7D8283",
"d. c #61BE89",
"f. c #68D89F",
"g. c #828484",
"h. c #86898A",
"j. c #8B8C8C",
"k. c #838788",
"l. c #988B89",
"z. c #858E91",
"x. c #8A8F90",
"c. c #8C9294",
"v. c #8B9497",
"b. c #929494",
"n. c #949A9B",
"m. c #9B9D9D",
"M. c #969696",
"N. c #9B9583",
"B. c #A39C9D",
"V. c #AA8F8F",
"C. c #8CB097",
"Z. c #B3A98E",
"A. c #969EA0",
"S. c #9DA2A3",
"D. c #9BA5A8",
"F. c #A3A5A5",
"G. c #A5AAAB",
"H. c #ABACAD",
"J. c #A6A7A6",
"K. c #B3AAAA",
"L. c #A7AEB1",
"P. c #ADB2B4",
"I. c #ACB6B9",
"U. c #B3B4B4",
"Y. c #B3B7B8",
"T. c #B4BABC",
"R. c #BBBCBC",
"E. c #C9B78D",
"W. c #E4A894",
"Q. c #C3BEBE",
"!. c #C6AAA0",
"~. c #CD9685",
"^. c #8ED1AF",
"/. c #ABC5A6",
"(. c #D3C39D",
"). c #CEC09C",
"_. c #EDCE85",
"`. c #CFC8AD",
"'. c #EBD7A8",
"]. c #F2DCA7",
"[. c #F8E1AA",
"{. c #FEECBD",
"}. c #F9E7BC",
"|. c #B4BEC2",
" X c #BCBEC1",
".X c #B5C1C4",
"XX c #BCC2C3",
"oX c #BDC6C9",
"OX c #C3C4C4",
"+X c #C4CACC",
"@X c #CACCCC",
"#X c #CAC4C2",
"$X c #C8CFD0",
"%X c #C7D0D2",
"&X c #CBD3D5",
"*X c #CED6D8",
"=X c #CFD8DA",
"-X c #D3D4D4",
";X c #DAD3D4",
":X c #D3D7D8",
">X c #D4DADC",
",X c #DDDDDD",
"<X c #D7DED1",
"1X c #D2CACB",
"2X c #F8DED6",
"3X c #FFF3D1",
"4X c #F3E8CB",
"5X c #D9DFE0",
"6X c #D7DEE0",
"7X c #DDE3E4",
"8X c #E1E3E4",
"9X c #E5EAEB",
"0X c #EAEDEE",
"qX c #E1E7E8",
"wX c #ECEFF0",
"eX c #EDF1F2",
"rX c #F2F4F4",
"tX c #F5F7F8",
"yX c #FEFEFE",
"uX c #FDFDFD",
"iX c #F7F8F8",
"pX c #FCEEE9",
/* pixels */
"  ,X  ,X  ,X  ,X  ,X  ,X    ,X  8X  x.e K 8 M.  ,X  ,X  ,X  ,X  ,X  ,X  ,X  ,X,X  ,X  ,X  ,X  ,X  ,X  ",
",X  ,X  ,X  ,X  ,X  ,X  ,X,X  8X  w K ! / ~ 0 ,X  ,X  ,X  ,X  ,X  ,X  ,X  ,X    ,X  ,X  ,X  ,X  ,X  ,X",
"  ,X  ,X  ,X  ,X  ,X  ,X    8Xl.2 W ~ ~ ~ ^ T   ,X  ,X  ,X  ,X  ,X  ,X  ,X  ,X,X  ,X  ,X  ,X  ,X  ,X  ",
",X  ,X  ,X  ,X  ,X  ,X  ,X8Xx.2 ! ~ Q Q Q ^ I m.  ,X  ,X  ,X  ,X  ,X  ,X  ,X    ,X  ,X  ,X  ,X  ,X  ,X",
"  ,X  ,X  ,X  ,X  ,X  ,X  G.2 W E E E W U ~ ! g 8X  ,X  ,X  ,X  ,X  ,X  ,X  ,X,X  ,X  ,X  ,X  ,X  ,X  ",
",X  ,X  ,X  ,X  ,X  ,X  -X4 Y E W Y U P L Q ^ T   ,X  ,X  ,X  ,X  ,X  ,X  ,X    ,X  ,X  ,X  ,X  ,X  ,X",
"  ,X  ,X  ,X  ,X  ,X  8XA G U U U L L P F Y ^ J U.  8X  ,X  8X  8X  ,X  ,X  ,X,X  ,X  ,X  ,X  ,X  ,X  ",
",X  ,X  ,X  ,X  ,X  ,X-Xq P Y P P H D L < F E H 5 F.  #X  x.n H.  8X  ,X  ,X    ,X  ,X  ,X  ,X  ,X  ,X",
"  ,X  ,X  ,X  ,X  ,X  m., P P J H H 1 < 8 | V.K.H.U.b.p $.Q.OXM.C A :X  ,X  ,X,X  ,X  ,X  ,X  ,X  ,X  ",
",X  ,X  ,X  ,X  ,X  8Xm < L H J D D 0 B.8XyXyXyXyXOXM. XiXuXtX9X-Xn.n #X  ,X    ,X  ,X  ,X  ,X  ,X  ,X",
"  ,X  ,X  ,X  ,X  ,X  k D F F F , M :XuXyXyXyX8Xm.P.@Xj.|.tXtX9X.XI.G.V OX  ,X,X  ,X  ,X  ,X  ,X  ,X  ",
",X  ,X  ,X  ,X  ,X  ;X3 < D < > ..8XeXwXyXyX-Xb.@XrXs.. i qXtX0Xs.p oXG.b :X    ,X  ,X  ,X  ,X  ,X  ,X",
"  ,X  ,X  ,X  ,X  ,X-X4 1 < > k 7XeX0X0XiX@Xc. X+XwXS.. o I.iXrXS.X L.6Xg.b.  ,X  ,X  ,X  ,X  ,X  ,X  ",
"  ,X  ,X  ,X  ,X  ,X:X7 > > ; XXwX0X0XeX@Xh.&Xd @ @X,X* . b eXrXoXX v.%XG.V   ,X  ,X  ,X  ,X  ,X  ,X  ",
",X  ,X  ,X  ,X  ,X  ,X5 - - M 7X7X0XeX>Xk.+X>Xp . g.wXs.. # &XtX=X# V L.s.V Q.  ,X  ,X  ,X  ,X  ,X  ,X",
"  ,X  ,X  ,X  ,X  ,X  h : ; P.7X7X8X9Xc.P.6X7Xz.. * 5X+Xo . z.tX7Xf f P.B s.M.    ,X  ,X  ,X  ,X  ,X  ",
",X  ,X  ,X  ,X  ,X  8Xj.: 6 %X7X7X7XT.x.v.a *XoX# . F.0Xv . A uX0XI.s..XB v.g.  ,X  ,X  ,X  ,X  ,X  ,X",
"  ,X  ,X  ,X  ,X  ,X  OXO g *X>X6X6Xk.XXs.. n.7XB . s 0X:XG.&X.Xz.v.|.&XV n.V     ,X  ,X  ,X  ,X  ,X  ",
",X  ,X  ,X  ,X  ,X  ,X  v s *X=X>XI.h.>XI.X i 6XI.$ C 0X7XD.x r ) ' } e.D.P.A   ,X  ,X  ,X  ,X  ,X  ,X",
"  ,X  ,X  ,X  ,X  ,X  5XU.C +X&X>Xx.L.:X%Xd o Y.7XoX&XG.l [ ,.3.7.8.8.1.-.S c     ,X  ,X  ,X  ,X  ,X  ",
",X  ,X  ,X  ,X  ,X  ,X  -Xb |.%XoXZ +X*X=XA.X n.qX@X$.&.2.7.0.0.0.0.0.0.8.*.t @X8X  ,X  ,X  ,X  ,X  ,X",
"  ,X  ,X  ,X  ,X  ,X  ,X  A D.z.s.b c.oX*X%XD.oXF.-.2.0.0.0.0.0.0.0.0.q.5.4.*.l   ,X  ,X  ,X  ,X  ,X  ",
",X  ,X  ,X  ,X  ,X  ,X  8Xh.s H.eX9Xm.A oX:X&Xr.;.9.0.0.q.4.7.q.8.8.q.8.8.=.y N Q.  ,X  ,X  ,X  ,X  ,X",
"  ,X  ,X  ,X  ,X  ,X  ,X  A.r.yXyXiX>Xz.v.oXN %.6.7.8.7.5.:.>.<.5.7.7.8.8.2.y     ,X  ,X  ,X  ,X  ,X  ",
",X  ,X  ,X  ,X  ,X  ,X  8XC Y.yXyXrX5XI.b h ] 6.%.] <.4.3.&. .[ >.<.6.7.7.5.` |.8X  OX  ,X  ,X  ,X  ,X",
"  ,X  ,X  ,X  ,X  ,X  ,X  g.XXyXiX0X6X.XB w.{ &.t #.t ` %.` ).). .{ ] >.<.4.[ H.U.M.M.F.  ,X  ,X  ,X  ",
",X  ,X  ,X  ,X  ,X  ,X  8XC F.0XqXqX%X.XZ y.E.oXC.@.d.E.).E.4X{.'.^.$.y r ' r A F.,X,Xk.8X  ,X  ,X  ,X",
"  ,X  ,X  ,X  ,X  ,X  ,X  H.A :X6X=X.X.XZ g.y.<Xf.f./.].3X3X3X{.].^.d.B.z.L.M.A -X>X:XB.  ,X  ,X  ,X  ",
",X  ,X  ,X  ,X  ,X  ,X  5X,XZ D.+X.X.XD.g.5Xm.N J.R.`.}.}.{.{.{.[.Z.S.>XG.,XF.R.>X>XH.  ,X  ,X  ,X  ,X",
"  ,X  ,X  ,X  ,X  ,X  ,X    T.b v.L.D.V T.9XrX@Xb.t.{.}.'.Z.Z.[.[.Z.qX7Xm.OXF.>X*X+Xg.,X  ,X  ,X  ,X  ",
",X  ,X  ,X  ,X  ,X  ,X        `.Z s * b *X7X0XrX+Xw.a._._.a.a.a.y.r.9X*Xm.m.XX:X-Xb.@X  ,X  ,X  ,X  ,X",
"  ,X  ,X  ,X  ,X  ,X  R.H.U.Y.  R.o.!.Y.n.&X7X8XC.+ = O.l  .l z X.b.&XS.s.m.=X=XH.H.  ,X  ,X  ,X  ,X  ",
",X  ,X  ,X  ,X  8XOXU.R.Q.@XU.h.s S W.2XQ.b.U.%X| 7 7 ~.t.G.  ,X  A.h.j.g.+X*XXXm.  ,X  ,X  ,X  ,X  ,X",
"  ,X  ,X  ,X  ,X@XU.J...g j K.+Xd & l.W.;X8XU.| R _ ..r.s A 7X  ,X  Q.J.P.:X%Xb.  ,X  ,X  ,X  ,X  ,X  ",
",X  ,X  ,X  ,X  U.J.g 0 8 8 w Q.F.# d t.#XyXuXu.( R = * 7 g j ;X  8X  m.%X&XF.m.8X  ,X  ,X  ,X  ,X  ,X",
"  ,X  ,X  ,X  OXG.j 0 ..o.e 8 X.-Xa d #XuXyXyXpXi.+.X % g 6 5 B R.  m.Y.-XXXk.:X  ,X  ,X  ,X  ,X  ,X  ",
",X  ,X  ,X  ,XU.B.e ..wXrXX.9 | -Xm h Q.8XrXrX,XR.X.p q 6 & g.@XH.B n P.%Xn.OX  ,X  ,X  ,X  ,X  ,X  ,X",
"  ,X  ,X  ,X  U.l.0 l.9XqXX.8 j &Xs 4 w j | | M qXR.v o.3 p &X0X-XH.h.m s.m.  ,X  ,X  ,X  ,X  ,X  ,X  ",
",X  ,X  ,X  ,XP.l.e ..+XT.k 8 ..+Xb $ % 3 8 8 d +XA.a ;Xb.b oX&X&XP.s.c m b.    ,X  ,X  ,X  ,X  ,X  ,X",
",X  ,X  ,X    H.B.q e M j 0 0 B.T.u 5 & X o X X & i p U.  G.s.+X-XV P.I.H.-X    ,X  ,X  ,X  ,X  ,X  ,X",
"  ,X  ,X  ,X  R.G.M 0 0 0 0 ..@Xj.u p * X $ A @ X u p C 8X  @XT.b.Z +XG.OX  ,X,X  ,X  ,X  ,X  ,X  ,X  ",
",X  ,X  ,X  ,X  G.H...q g X.OXG.v.p & @ # -X  H.@ @ & & H.,X  j.b XXU.F.  ,X    ,X  ,X  ,X  ,X  ,X  ,X",
"  ,X  ,X  ,X  8X#XG.I.P.Y.|.v.v.c.& @ + OX  ,X  m.@ & k.B.  Q.g.b m.F.  ,X  ,X,X  ,X  ,X  ,X  ,X  ,X  ",
",X  ,X  ,X  ,X  5X1XH.F.F.g.B z.P.h.@ H.  ,X  ,X  s j.8X&XH.J.A g.@X  ,X  ,X    ,X  ,X  ,X  ,X  ,X  ,X",
"  ,X  ,X  ,X  ,X  ,X  ,X    m.:XeX+Xs.  ,X  ,X  ;Xn.%X8X>XF.:XJ.#X  ,X  ,X  ,X,X  ,X  ,X  ,X  ,X  ,X  ",
",X  ,X  ,X  ,X  ,X  ,X  7X  G.8X7X%Xv.;X  ,X  ,X  m.&X7X,XF.  8X  ,X  ,X  ,X    ,X  ,X  ,X  ,X  ,X  ,X",
"  ,X  ,X  ,X  ,X  ,X  OXU.J.h.&X*XXXF.  ,X  ,X  ,Xc.T.+XXXA U.  ,X  ;X  ,X  ,X,X  ,X  ,X  ,X  ,X  ,X  ",
",X  ,X  ,X  ,X  ,X  K.R.OXm.S.@XY.M.R.8X  ,X  ,X  F.H.%XG.S.@XR.J.1X  ;X  ;X;X,X:X  ,X  ,X  ,X  ,X  ,X",
"  ,X  ,X  ,X  ,X  H.:XyXiX8XT.XX*Xv.-X  ,X  ,X  &XF.:XR.R.7XtXyX;XB.;X  ;X  ;X,X:X,X  ,X  ,X  ,X  ,X  ",
",X  ,X  ,X  ,X  @XF.eXrX8X=XoXD.+XG.  ,X  ,X  8X  F.oXD.oX=X7XeX9Xm.  ,X  ,X  ,X,X  ,X  ,X  ,X  ,X  ,X",
"  ,X  ,X  ,X  ,X  c.S.S.S.v.v.s.v.k.@X  ,X  ,X  @Xj.c.s.v.v.S.A.A.x.1X  ,X  ,X,X  ,X  ,X  ,X  ,X  ,X  "
};
